inDegrees=yes
name=ik_S54_A09_T01
DataType=double
version=3
OpenSimVersion=4.3-2021-08-27-4bc7ad9
endheader
time	pelvis_tilt	pelvis_list	pelvis_rotation	pelvis_tx	pelvis_ty	pelvis_tz	hip_flexion_r	hip_adduction_r	hip_rotation_r	knee_angle_r	knee_angle_r_beta	ankle_angle_r	subtalar_angle_r	mtp_angle_r	hip_flexion_l	hip_adduction_l	hip_rotation_l	knee_angle_l	knee_angle_l_beta	ankle_angle_l	subtalar_angle_l	mtp_angle_l	lumbar_extension	lumbar_bending	lumbar_rotation	arm_flex_r	arm_add_r	arm_rot_r	elbow_flex_r	pro_sup_r	wrist_flex_r	wrist_dev_r	arm_flex_l	arm_add_l	arm_rot_l	elbow_flex_l	pro_sup_l	wrist_flex_l	wrist_dev_l
22.27999999999961	-7.852175232123779	-1.948313967713007	20.45864044120507	0	0.9399999999999999	0	43.43497038252161	-10.05735737002733	-10.04864502176321	55.55017703682577	0.9695334893583569	0	0	0	43.43497038252161	-10.05735737002733	-10.04864502176321	55.55017703682577	0.9695334893583569	0	0	0	-6.885137127299256	-1.177573085154162	5.056768847134596	65.97642780918508	8.104535862975904	-1.462935838725704	38.42407002185132	128.0569951903027	0	0	61.03968228093338	-27.29021481539662	6.837085816700024	56.80934283129682	109.1144077123227	0	0
22.29999999999961	-7.813108817997582	-1.961366701858059	20.44520362749455	0	0.9399999999999999	0	43.43516848085273	-10.05733283549946	-10.04863152604744	55.55012900594699	0.9695326510613798	0	0	0	43.43516848085273	-10.05733283549946	-10.04863152604744	55.55012900594699	0.9695326510613798	0	0	0	-6.851906943818645	-1.208372851102632	5.092784610910338	65.9615283416406	8.080160983679141	-1.704172346855229	38.32414000607429	127.9522030149425	0	0	60.98718031599199	-27.31032188957096	6.886206630285376	56.82698024448324	109.1152197720581	0	0
22.31999999999961	-7.778566830346039	-1.986782767203582	20.56088522140094	0	0.9399999999999999	0	43.43581665896732	-10.05725001374384	-10.04858644558471	55.54997637502169	0.9695299871491927	0	0	0	43.43581665896732	-10.05725001374384	-10.04858644558471	55.54997637502169	0.9695299871491927	0	0	0	-6.831418371525833	-1.230283129390561	4.99106195021661	66.00694253808348	8.073229277656337	-2.057999269305594	38.06347716261696	128.0253303599726	0	0	61.45799994565249	-27.80929415452052	6.11998071747361	57.54506935501163	108.5688926937454	0	0
22.33999999999961	-7.747297540685456	-1.988369987897294	20.68691431813193	0	0.9399999999999999	0	43.43645631763122	-10.05716842346558	-10.04854200162657	55.5498256267409	0.9695273560953513	0	0	0	43.43645631763122	-10.05716842346558	-10.04854200162657	55.5498256267409	0.9695273560953513	0	0	0	-6.807822684018642	-1.222432944330904	4.844215638477251	66.14909760989083	7.901620952680464	-2.699262993270259	37.70152965267117	128.3119289221317	0	0	62.33333155965644	-28.72723163710048	5.150621415594722	58.00307405150834	108.5981177066109	0	0
22.35999999999961	-7.725936291045202	-1.98387281989179	20.73800973413934	0	0.9399999999999999	0	43.43701603851092	-10.05709724958501	-10.04850318353186	55.54969346254014	0.9695250493948948	0	0	0	43.43701603851092	-10.05709724958501	-10.04850318353186	55.54969346254014	0.9695250493948948	0	0	0	-6.787774662986607	-1.220073569232304	4.797822570181369	66.20038878274981	7.928961839375699	-2.630899624816301	37.67726128548797	128.4467350643968	0	0	62.37393385330544	-28.89248598719925	4.973621289617709	58.83500572244919	109.0858579040642	0	0
22.37999999999961	-7.72276248787181	-1.965292002424333	20.89829656759436	0	0.9399999999999999	0	43.43766429679103	-10.05701449290286	-10.04845810231453	55.54954105468224	0.9695223893759685	0	0	0	43.43766429679103	-10.05701449290286	-10.04845810231453	55.54954105468224	0.9695223893759685	0	0	0	-6.783964178429014	-1.179734414938582	4.61124067198757	66.24695420846528	8.006552205276513	-2.348062762545153	37.75872599226263	128.4557376695415	0	0	62.92470019093901	-30.43426938700463	4.905087747358039	59.53931108753012	108.5909031285885	0	0
22.39999999999961	-7.715190842865359	-1.934682175587567	21.02823729574808	0	0.9399999999999999	0	43.43844333014188	-10.05691509535175	-10.04840393592958	55.54935797796071	0.969519194084394	0	0	0	43.43844333014188	-10.05691509535175	-10.04840393592958	55.54935797796071	0.969519194084394	0	0	0	-6.770876531722155	-1.133461903982386	4.45695893827457	66.27631844206921	8.025827732588983	-2.124345679499104	37.85303670983478	128.4866230207228	0	0	63.09740246858404	-31.58696545650227	4.742731472636105	60.37829467195925	109.1518164631924	0	0
22.41999999999961	-7.723262248112129	-1.901321555368566	21.11806682250743	0	0.9399999999999999	0	43.43905299970495	-10.05683750859458	-10.04836161078979	55.54921447405786	0.9695166894687998	0	0	0	43.43905299970495	-10.05683750859458	-10.04836161078979	55.54921447405786	0.9695166894687998	0	0	0	-6.771336834136728	-1.081507801764825	4.325872685705543	66.24796166003594	8.031758652893057	-2.043120730776726	37.86259614263176	128.4774561160178	0	0	63.21705141364192	-32.68092680483618	4.826299467251562	60.58930998075131	109.0574530698739	0	0
22.43999999999961	-7.725795580709044	-1.869474011427259	21.24253687825505	0	0.9399999999999999	0	43.4394568374068	-10.05678628187072	-10.04833363130002	55.54911919101495	0.9695150264659799	0	0	0	43.4394568374068	-10.05678628187072	-10.04833363130002	55.54911919101495	0.9695150264659799	0	0	0	-6.766488073927426	-1.034557976471053	4.20438632940901	66.31020389551203	7.976877032577937	-1.947169565333573	37.95667394459446	128.644262652257	0	0	63.31291413170876	-33.76029125558436	4.808260265091367	60.57310780609678	109.202868532271	0	0
22.45999999999961	-7.727666195491827	-1.843875175640493	21.38402286771356	0	0.9399999999999999	0	43.43981440788973	-10.05674096738863	-10.048308870607	55.54903478922907	0.9695135533769216	0	0	0	43.43981440788973	-10.05674096738863	-10.048308870607	55.54903478922907	0.9695135533769216	0	0	0	-6.763345991208388	-0.991438234697542	4.063610033149607	66.29792939082742	7.954727384946768	-1.899855271566267	38.03475192210437	128.7616032449084	0	0	63.42305706391125	-34.93559848154636	4.595888645525444	60.34067592966287	109.599373220777	0	0
22.47999999999961	-7.71769644179173	-1.841452931595057	21.53883612169716	0	0.9399999999999999	0	43.44023565574595	-10.0566875888592	-10.04827969920428	55.54893540258092	0.9695118187526789	0	0	0	43.44023565574595	-10.0566875888592	-10.04827969920428	55.54893540258092	0.9695118187526789	0	0	0	-6.759792356595615	-0.9681040114989994	3.877975962287326	66.38471588437163	7.923880492069889	-1.919766045555137	37.97156789006777	128.738598778541	0	0	63.581977808636	-36.25337870263626	4.264558859366124	59.85705044284136	110.3653468175431	0	0
22.49999999999961	-7.705653720304358	-1.819287571959567	21.67551658283534	0	0.9399999999999999	0	43.44086240509248	-10.05660803835683	-10.04823624335172	55.54878785983686	0.9695092436460077	0	0	0	43.44086240509248	-10.05660803835683	-10.04823624335172	55.54878785983686	0.9695092436460077	0	0	0	-6.744984775106367	-0.9340487294589739	3.748355491937899	66.40323645378973	7.842182099205543	-1.955794260100124	37.90565786292666	128.7549003327076	0	0	63.66561742345716	-37.40021527053266	3.989353357925889	60.06058183114279	109.6503046995442	0	0
22.51999999999961	-7.691512696292182	-1.798920875672156	21.85749980205317	0	0.9399999999999999	0	43.44149553832325	-10.05652876323391	-10.04819272949963	55.54863704531193	0.9695066114359878	0	0	0	43.44149553832325	-10.05652876323391	-10.04819272949963	55.54863704531193	0.9695066114359878	0	0	0	-6.729072421378381	-0.9001006246939046	3.599284858090188	66.40758676261187	7.764946564826193	-2.027232041256219	37.84016455899538	128.8115740110976	0	0	63.67654116963575	-37.48157075954209	3.832493424678402	59.07158898308439	111.7583037466408	0	0
22.53999999999961	-7.675837409753815	-1.791062799572933	22.01424866637533	0	0.9399999999999999	0	43.44224435755198	-10.05643382090946	-10.04814082875378	55.54846089035207	0.9695035369519445	0	0	0	43.44224435755198	-10.05643382090946	-10.04814082875378	55.54846089035207	0.9695035369519445	0	0	0	-6.715277332729769	-0.8829020908491351	3.480664370977434	66.46797075068923	7.668103483447332	-2.099721361964475	38.07592475891023	129.236742244926	0	0	63.74509358001869	-38.61188194022304	3.534633768757761	59.34515978288086	111.0322367670793	0	0
